<svg width="157" height="28" viewBox="0 0 157 28" fill="none" xmlns="http://www.w3.org/2000/svg">
<path d="M17.936 26.68H11.28V15.192C11.28 14.4453 11.088 13.8267 10.704 13.336C10.3413 12.8453 9.808 12.6 9.104 12.6C8.76267 12.6 8.464 12.6853 8.208 12.856C7.952 13.0053 7.73867 13.208 7.568 13.464C7.39733 13.6987 7.248 13.976 7.12 14.296C7.01333 14.5947 6.93867 14.8933 6.896 15.192V26.68H0.24V7.704H5.936L6.448 9.048C7.088 8.344 7.824 7.84267 8.656 7.544C9.488 7.24533 10.3093 7.08533 11.12 7.064C12.08 7.04267 13.008 7.256 13.904 7.704C14.8213 8.152 15.6107 8.80267 16.272 9.656C17.0613 8.67467 17.9787 7.992 19.024 7.608C20.0907 7.224 21.1253 7.04267 22.128 7.064C23.0027 7.08533 23.8453 7.288 24.656 7.672C25.488 8.03467 26.224 8.568 26.864 9.272C27.504 9.95467 28.016 10.7867 28.4 11.768C28.784 12.7493 28.976 13.848 28.976 15.064V26.68H22.32V15.192C22.32 14.4453 22.128 13.8267 21.744 13.336C21.3813 12.8453 20.848 12.6 20.144 12.6C19.4827 12.6 18.9707 12.8133 18.608 13.24C18.2667 13.6667 18.0427 14.2107 17.936 14.872V26.68ZM30.5937 17.24C30.5937 15.6187 30.8924 14.1573 31.4897 12.856C32.1084 11.5547 32.9297 10.456 33.9537 9.56C34.9991 8.64267 36.2044 7.94933 37.5697 7.48C38.9564 6.98933 40.4284 6.744 41.9858 6.744C43.5644 6.744 45.0471 6.98933 46.4338 7.48C47.8204 7.94933 49.0258 8.632 50.0498 9.528C51.0738 10.424 51.8844 11.5227 52.4818 12.824C53.0791 14.1253 53.3778 15.5867 53.3778 17.208C53.3778 18.808 53.0791 20.2587 52.4818 21.56C51.8844 22.84 51.0738 23.928 50.0498 24.824C49.0258 25.7413 47.8204 26.4347 46.4338 26.904C45.0471 27.3947 43.5644 27.64 41.9858 27.64C40.4284 27.64 38.9564 27.3947 37.5697 26.904C36.2044 26.4347 34.9991 25.752 33.9537 24.856C32.9297 23.96 32.1084 22.872 31.4897 21.592C30.8924 20.2907 30.5937 18.84 30.5937 17.24ZM41.9858 22.168C42.7111 22.168 43.3724 22.04 43.9698 21.784C44.5671 21.528 45.0684 21.1867 45.4738 20.76C45.8791 20.312 46.1884 19.7893 46.4018 19.192C46.6364 18.5947 46.7537 17.944 46.7537 17.24C46.7537 16.5147 46.6364 15.8533 46.4018 15.256C46.1884 14.6373 45.8791 14.104 45.4738 13.656C45.0684 13.208 44.5671 12.8667 43.9698 12.632C43.3724 12.376 42.7111 12.248 41.9858 12.248C41.2391 12.248 40.5671 12.376 39.9698 12.632C39.3938 12.888 38.8924 13.24 38.4657 13.688C38.0604 14.136 37.7511 14.6693 37.5378 15.288C37.3244 15.8853 37.2177 16.536 37.2177 17.24C37.2177 17.944 37.3244 18.5947 37.5378 19.192C37.7511 19.7893 38.0604 20.312 38.4657 20.76C38.8924 21.1867 39.3938 21.528 39.9698 21.784C40.5671 22.04 41.2391 22.168 41.9858 22.168ZM62.2273 7.704V26.68H55.5712V7.704H62.2273ZM62.2273 0.279999V5.784H55.5712V0.279999H62.2273ZM82.7922 26.68H76.1362V15.192C76.1362 14.4453 75.9442 13.8267 75.5602 13.336C75.1976 12.8453 74.6642 12.6 73.9602 12.6C73.6189 12.6 73.3202 12.6853 73.0642 12.856C72.8082 13.0053 72.5949 13.208 72.4242 13.464C72.2536 13.6987 72.1042 13.976 71.9762 14.296C71.8696 14.5947 71.7949 14.8933 71.7522 15.192V26.68H65.0962V7.704H70.7922L71.3042 9.048C71.9442 8.344 72.6802 7.84267 73.5122 7.544C74.3442 7.24533 75.1656 7.08533 75.9762 7.064C76.9362 7.04267 77.8642 7.256 78.7602 7.704C79.6776 8.152 80.4669 8.80267 81.1282 9.656C81.9176 8.67467 82.8349 7.992 83.8802 7.608C84.9469 7.224 85.9816 7.04267 86.9842 7.064C87.8589 7.08533 88.7016 7.288 89.5122 7.672C90.3442 8.03467 91.0802 8.568 91.7202 9.272C92.3602 9.95467 92.8722 10.7867 93.2562 11.768C93.6402 12.7493 93.8322 13.848 93.8322 15.064V26.68H87.1762V15.192C87.1762 14.4453 86.9842 13.8267 86.6002 13.336C86.2376 12.8453 85.7042 12.6 85.0002 12.6C84.3389 12.6 83.8269 12.8133 83.4642 13.24C83.1229 13.6667 82.8989 14.2107 82.7922 14.872V26.68ZM112.602 7.704H118.266V26.68H112.57L112.058 25.144C111.162 25.8907 110.149 26.4453 109.018 26.808C107.909 27.1707 106.757 27.3413 105.562 27.32C104.069 27.2987 102.703 27.032 101.466 26.52C100.229 26.008 99.162 25.304 98.266 24.408C97.37 23.512 96.6767 22.456 96.186 21.24C95.6953 20.024 95.45 18.6907 95.45 17.24C95.45 15.7467 95.706 14.3813 96.218 13.144C96.7513 11.8853 97.466 10.808 98.362 9.912C99.2793 9.016 100.346 8.32267 101.562 7.832C102.799 7.32 104.122 7.064 105.53 7.064C106.767 7.064 107.93 7.224 109.018 7.544C110.106 7.864 111.109 8.36533 112.026 9.048L112.602 7.704ZM106.554 21.816C107.898 21.816 108.975 21.3893 109.786 20.536C110.597 19.6827 111.002 18.584 111.002 17.24C111.002 15.832 110.597 14.712 109.786 13.88C108.975 13.0267 107.898 12.6 106.554 12.6C105.21 12.6 104.133 13.0267 103.322 13.88C102.511 14.712 102.106 15.832 102.106 17.24C102.106 18.584 102.511 19.6827 103.322 20.536C104.133 21.3893 105.21 21.816 106.554 21.816ZM129.658 7.704H134.01V13.208H129.658V19.48C129.658 19.992 129.808 20.408 130.106 20.728C130.405 21.0267 130.821 21.176 131.354 21.176H134.33V26.68H128.89C128.08 26.68 127.322 26.5413 126.618 26.264C125.914 26.008 125.285 25.6347 124.73 25.144C124.197 24.6533 123.77 24.056 123.45 23.352C123.152 22.6693 123.002 21.8907 123.002 21.016V13.208H119.546V7.704H123.002V1.176H129.658V7.704ZM141.696 20.632C142.656 21.848 144.054 22.456 145.888 22.456C147.168 22.456 148.267 22.264 149.184 21.88C150.102 21.4747 150.966 20.8347 151.776 19.96L156.096 23.16C154.88 24.568 153.483 25.6667 151.904 26.456C150.347 27.2453 148.512 27.64 146.4 27.64C144.672 27.64 143.094 27.3947 141.664 26.904C140.235 26.4347 138.998 25.752 137.952 24.856C136.907 23.96 136.096 22.872 135.52 21.592C134.944 20.2907 134.656 18.8293 134.656 17.208C134.656 15.6293 134.944 14.2 135.52 12.92C136.118 11.6187 136.928 10.52 137.952 9.624C138.976 8.70667 140.171 8.00267 141.536 7.512C142.902 7 144.363 6.744 145.92 6.744C147.52 6.744 148.992 6.98933 150.336 7.48C151.68 7.94933 152.832 8.632 153.792 9.528C154.752 10.424 155.499 11.5227 156.032 12.824C156.587 14.1253 156.864 15.5973 156.864 17.24L141.696 20.632ZM146.144 11.864C144.694 11.864 143.499 12.216 142.56 12.92C141.622 13.624 141.024 14.6053 140.768 15.864L150.112 13.784C149.686 13.2293 149.142 12.7707 148.48 12.408C147.819 12.0453 147.04 11.864 146.144 11.864Z" fill="#1A4568"/>
</svg>
